<svg width="136" height="98" viewBox="0 0 136 98" fill="none" xmlns="http://www.w3.org/2000/svg">
<path d="M115.332 97.0424L9.23662 33.073C6.63386 31.5037 7.7464 27.5039 10.7857 27.5039H47.9435C50.5894 27.5039 51.9398 24.3277 50.1039 22.4223L33.396 5.08161C31.5601 3.17623 32.8928 0.000122199 35.5387 9.07124e-05C47.7713 -5.48558e-05 73.3777 -0.000271006 91.5 0.000185799C104.5 0.000513487 118.5 9.99902 118.5 26.9996C118.5 44.999 103 54.0039 92.5 54.0039C91.6767 54.1409 90.8394 54.2365 90.0112 54.3C87.1334 54.5208 85.3258 58.369 87.3574 60.4191L119.012 92.3615C121.499 94.8714 118.358 98.8669 115.332 97.0424Z" fill="url(#paint0_linear_7104_4687)"/>
<circle cx="30.5" cy="76.999" r="15" fill="url(#paint1_linear_7104_4687)"/>
<defs>
<linearGradient id="paint0_linear_7104_4687" x1="0" y1="0" x2="148.665" y2="28.6206" gradientUnits="userSpaceOnUse">
<stop stop-color="#E0BAFF"/>
<stop offset="1" stop-color="#CC8DFF"/>
</linearGradient>
<linearGradient id="paint1_linear_7104_4687" x1="15.5" y1="61.999" x2="48.7111" y2="67.1471" gradientUnits="userSpaceOnUse">
<stop stop-color="#E0BAFF"/>
<stop offset="1" stop-color="#CC8DFF"/>
</linearGradient>
</defs>
</svg>
