<svg width="68" height="48" viewBox="0 0 68 48" fill="none" xmlns="http://www.w3.org/2000/svg">
<path d="M57.1831 47.5309L5.21791 16.199C3.94309 15.4304 4.488 13.4713 5.97662 13.4713H24.1764C25.4724 13.4713 26.1337 11.9156 25.2345 10.9824L17.0511 2.48895C16.1519 1.55571 16.8046 5.98524e-05 18.1005 4.44306e-05C24.092 -2.68682e-05 36.6339 -0.000132738 45.5102 9.10037e-05C51.8775 0.000251504 58.7347 4.89748 58.7347 13.2243C58.7347 22.0403 51.1428 26.4509 46 26.4509C45.5967 26.518 45.1866 26.5648 44.7809 26.5959C43.3714 26.7041 42.4861 28.5889 43.4812 29.593L58.9855 45.2383C60.2038 46.4676 58.6652 48.4246 57.1831 47.5309Z" fill="white"/>
<circle cx="15.6327" cy="37.7138" r="7.34694" fill="white"/>
</svg>
